<?xml version="1.0" encoding="UTF-8" standalone="no"?>
<!-- Created with Inkscape (http://www.inkscape.org/) -->

<svg
   version="1.1"
   id="svg53"
   width="1200"
   height="1200"
   viewBox="0 0 1200 1200"
   sodipodi:docname="full.png"
   inkscape:version="1.1 (c4e8f9ed74, 2021-05-24)"
   xmlns:inkscape="http://www.inkscape.org/namespaces/inkscape"
   xmlns:sodipodi="http://sodipodi.sourceforge.net/DTD/sodipodi-0.dtd"
   xmlns="http://www.w3.org/2000/svg"
   xmlns:svg="http://www.w3.org/2000/svg">
  <defs
     id="defs57" />
  <sodipodi:namedview
     id="namedview55"
     pagecolor="#ffffff"
     bordercolor="#666666"
     borderopacity="1.0"
     inkscape:pageshadow="2"
     inkscape:pageopacity="0.0"
     inkscape:pagecheckerboard="0"
     showgrid="false"
     inkscape:zoom="0.4375"
     inkscape:cx="1258.2857"
     inkscape:cy="600"
     inkscape:window-width="1366"
     inkscape:window-height="740"
     inkscape:window-x="0"
     inkscape:window-y="0"
     inkscape:window-maximized="1"
     inkscape:current-layer="g59" />
  <g
     inkscape:groupmode="layer"
     inkscape:label="Image"
     id="g59">
    <path
       style="fill:#008080"
       d="m 570.02433,1039.5693 c -0.5225,-0.4928 -21.425,-12.6983 -46.45,-27.1235 -25.025,-14.42521 -49.2125,-28.45221 -53.75,-31.17121 l -8.25,-4.9436 v -63.31791 -63.31787 l 2.5497,-1.67063 c 1.4023,-0.91885 26.1523,-15.33938 55,-32.04562 l 52.4503,-30.375 52.4502,30.375 c 28.8477,16.70624 53.5977,31.12677 55,32.04562 l 2.5498,1.67063 v 63.31787 63.31791 l -8.25,4.9436 c -4.5375,2.719 -28.725,16.746 -53.75,31.17121 -25.025,14.4252 -45.9275,26.6307 -46.45,27.1235 -0.5225,0.4927 -1.22,0.8959 -1.55,0.8959 -0.33,0 -1.0275,-0.4032 -1.55,-0.8959 z m 52.05,-54.62521 c 18.7,-10.8475 34.5671,-20.251 35.2603,-20.8968 0.9854,-0.9181 1.2035,-11.0195 1,-46.30548 l -0.2603,-45.13128 -38,22.17733 -38,22.17733 -0.2602,45.8378 -0.2601,45.83791 3.2601,-1.9871 c 1.7931,-1.0928 18.5602,-10.86221 37.2602,-21.70971 z m -61.5155,-68.89433 c -0.5699,-0.56996 -17.7871,-10.79948 -38.2604,-22.73227 l -37.2241,-21.69597 -0.2605,44.61141 c -0.1661,28.46256 0.098,44.96976 0.7296,45.60136 0.5444,0.5445 17.7616,10.7587 38.2604,22.6983 l 37.2705,21.70841 0.2604,-44.57751 c 0.1739,-29.76649 -0.084,-44.92175 -0.7759,-45.61373 z m 16.2987,-18.22166 c 6.2449,-3.15682 64.0193,-36.79698 68.0158,-39.60337 1.5394,-1.08103 2.6644,-2.34728 2.5,-2.81387 -0.1645,-0.4666 -17.2841,-10.7577 -38.0436,-22.86912 l -37.7446,-22.02076 -37.7554,22.00344 c -20.7655,12.10188 -37.8718,22.3383 -38.0139,22.74758 -0.1885,0.54242 73.6829,44.66841 75.5417,45.1238 0.1558,0.0382 2.6308,-1.1173 5.5,-2.5677 z m -170.2832,-69.57268 c -24.475,-14.24504 -45.1078,-26.25607 -45.8506,-26.69118 -0.9684,-0.56722 -0.062,-1.54633 3.2026,-3.4595 4.497,-2.63538 4.5569,-2.74039 4.8506,-8.49508 l 0.2974,-5.82671 11.5,6.83635 c 6.325,3.75998 26.9125,15.71573 45.75,26.56832 18.8375,10.8526 34.25,19.97052 34.25,20.26206 0,0.29154 -2.0018,1.7392 -4.4485,3.21702 -4.2913,2.59203 -4.4591,2.87776 -4.75,8.08787 l -0.3015,5.40091 z m 285,20.65375 c 0,-5.44113 -0.043,-5.51899 -4.5,-8.21132 -2.475,-1.49495 -4.5,-2.95663 -4.5,-3.24817 0,-0.29154 15.4125,-9.40946 34.25,-20.26206 18.8375,-10.85259 39.425,-22.80834 45.75,-26.56832 l 11.5,-6.83635 0.2973,5.82671 c 0.2931,5.74331 0.3617,5.86444 4.7952,8.46262 2.4738,1.44974 4.365,2.76371 4.2026,2.91993 -0.1623,0.15621 -18.2951,10.73015 -40.2951,23.49764 -22,12.76749 -42.5875,24.72088 -45.75,26.56308 l -5.75,3.34946 z m -488,-21.56653 c -24.475,-14.2405 -49.1125,-28.59699 -54.75,-31.90331 l -10.25,-6.0115 v -63.43537 -63.43538 l 9.25,-5.47662 c 5.0875,-3.01213 29.8342,-17.3843 54.9927,-31.93813 l 45.7428,-26.46152 48.1829,27.89219 c 26.5005,15.3407 48.6074,27.89219 49.1264,27.89219 0.5189,0 3.5899,1.60758 6.8243,3.5724 l 5.8809,3.57241 v 63.86047 63.86048 l -8.25,4.93317 c -11.64,6.96026 -101.0226,58.67266 -101.6949,58.8357 -0.3053,0.074 -20.5801,-11.51669 -45.0551,-25.75718 z m 33.9846,-96.29277 c -0.57,-0.57002 -17.7872,-10.79959 -38.2605,-22.73238 l -37.2241,-21.69597 -0.2605,44.61141 c -0.177,30.32951 0.078,44.95089 0.7961,45.67183 0.581,0.58324 17.7982,10.57215 38.2604,22.19759 l 37.204,21.13716 0.2605,-44.07662 c 0.1739,-29.4241 -0.084,-44.42116 -0.7759,-45.11302 z m 61.5154,66.45683 c 17.6,-9.97737 33.0172,-19.14584 34.2605,-20.37438 l 2.2606,-2.2337 -0.2606,-44.14406 -0.2605,-44.14405 -38,22.17734 -38,22.17734 -0.2604,44.79821 -0.2603,44.7982 4.2603,-2.45711 c 2.3432,-1.35142 18.6604,-10.62042 36.2604,-20.59779 z m -44.7215,-85.93182 c 6.7616,-3.41579 63.4371,-36.41501 67.452,-39.27386 1.5232,-1.08461 2.7695,-2.30049 2.7695,-2.70197 0,-0.40147 -13.8375,-8.56542 -30.75,-18.14211 -16.9125,-9.57669 -34.0125,-19.37627 -38,-21.77685 l -7.25,-4.36469 -7.25,4.36302 c -3.9875,2.39966 -21.0875,12.1934 -38,21.76385 -16.9125,9.57046 -30.7477,17.65331 -30.7449,17.96188 0,0.30857 4.6054,3.26104 10.2279,6.56104 5.6226,3.3 22.6077,13.28223 37.7449,22.18274 15.1371,8.90051 27.6474,16.21301 27.8006,16.25 0.1532,0.037 2.8532,-1.23338 6,-2.82305 z m 595.2215,115.76776 c -24.475,-14.2405 -49.1125,-28.59699 -54.75,-31.90331 l -10.25,-6.0115 v -63.43537 -63.43538 l 9.25,-5.48493 c 5.0875,-3.01672 29.8363,-17.38764 54.9975,-31.9354 l 45.7475,-26.45046 48.1781,27.88945 c 26.498,15.3392 48.6027,27.88945 49.1217,27.88945 0.519,0 3.5899,1.60758 6.8244,3.5724 l 5.88077,3.57241 v 63.86047 63.86048 l -8.24997,4.93317 c -11.64,6.96026 -101.0226,58.67266 -101.6949,58.8357 -0.3053,0.074 -20.5801,-11.51669 -45.0551,-25.75718 z m 33.9847,-95.29266 c -0.57,-0.57008 -17.7873,-10.7997 -38.2606,-22.73249 l -37.2241,-21.69598 -0.2606,44.12558 c -0.2035,34.46724 0.015,44.39013 1,45.33424 0.6933,0.66477 17.9106,10.64964 38.2606,22.1886 l 37,20.97994 0.2606,-43.58169 c 0.174,-29.08576 -0.084,-43.92645 -0.7759,-44.6182 z m 62.3347,64.95115 c 19.1507,-10.85385 35.0181,-20.25215 35.2608,-20.88511 0.2428,-0.63295 0.324,-21.03063 0.1806,-45.32817 l -0.2608,-44.17734 -38,22.17734 -38,22.17734 -0.2604,44.83796 -0.2604,44.83796 3.2604,-1.95286 c 1.7932,-1.07407 18.9291,-10.83327 38.0798,-21.68712 z m -13.3528,-104.44188 c 20.6067,-12.04169 37.6002,-22.29468 37.7635,-22.78442 0.1632,-0.48974 -13.5468,-8.72935 -30.4667,-18.31025 -16.9199,-9.58089 -33.9713,-19.35073 -37.892,-21.71075 l -7.1285,-4.29095 -38.13,21.72573 c -20.9714,11.94915 -37.9798,22.18717 -37.7964,22.75115 0.1834,0.56399 2.9997,2.44398 6.2584,4.17777 3.2588,1.73379 20.1001,11.49179 37.4251,21.68446 17.325,10.19266 31.725,18.55891 32,18.59167 0.275,0.0328 17.3599,-9.79272 37.9666,-21.83441 z m -370.9666,54.91518 v -31.99075 l 5,3.07653 5,3.07653 5,-3.07653 5,-3.07653 v 31.99075 c 0,17.59492 -0.2565,31.99076 -0.5699,31.99076 -0.3134,0 -2.5634,-1.37162 -5,-3.04804 l -4.4301,-3.04804 -4.4302,3.04804 c -2.4366,1.67642 -4.6866,3.04804 -5,3.04804 -0.3134,0 -0.5698,-14.39584 -0.5698,-31.99076 z m 8.45,-38.915 c -0.5225,-0.49816 -28.4,-16.63157 -61.95,-35.85201 -33.55,-19.22044 -66.0625,-37.95445 -72.25,-41.63112 l -11.25,-6.68486 v -84.896 -84.89601 l 8.25,-4.94755 c 4.5375,-2.72116 37.05,-21.48109 72.25,-41.68874 35.2,-20.20765 64.5625,-37.19155 65.25,-37.74201 0.8325,-0.66661 1.6674,-0.66726 2.5,-0.002 0.6875,0.54939 30.05,17.53587 65.25,37.74774 35.2,20.21186 67.7125,38.97266 72.25,41.69067 l 8.25,4.94183 v 84.89601 84.896 l -11.25,6.68486 c -6.1875,3.67667 -38.7,22.41068 -72.25,41.63112 -33.55,19.22044 -61.4275,35.35385 -61.95,35.85201 -0.5225,0.49823 -1.22,0.90582 -1.55,0.90582 -0.33,0 -1.0275,-0.40759 -1.55,-0.90576 z m -9.6922,-164.703 c -0.6918,-0.65778 -22.6328,-13.44511 -48.7578,-28.41627 -26.125,-14.97117 -48.966,-28.10397 -50.7578,-29.18401 l -3.2578,-1.96369 0.2578,60.7972 0.2578,60.7972 8.5,4.99614 c 4.675,2.74787 27.85,16.14011 51.5,29.76051 l 43,24.76439 0.2578,-60.17776 c 0.2028,-47.31376 -0.011,-60.4334 -1,-61.37371 z m 76.2422,90.12156 c 25.575,-14.69749 47.066,-27.2576 47.7578,-27.91135 0.9891,-0.93459 1.2028,-14.03276 1,-61.28081 l -0.2578,-60.09216 -49.3545,28.33918 c -27.1449,15.58655 -50.4324,29.04552 -51.75,29.90881 l -2.3955,1.56964 v 60.5191 60.5191 l 4.25,-2.4244 c 2.3375,-1.33342 25.175,-14.44962 50.75,-29.14711 z m -50.7389,-114.82914 c 7.8314,-4.57399 31.0014,-17.93951 51.4889,-29.70115 20.4875,-11.76164 37.25,-21.6623 37.25,-22.00148 0,-0.33917 -16.7625,-10.23309 -37.25,-21.98648 -20.4875,-11.75339 -43.6625,-25.11332 -51.5,-29.68873 l -14.25,-8.31892 -14.25,8.31879 c -7.8375,4.57533 -31.0125,17.92332 -51.5,29.6622 -20.4875,11.73887 -37.25,21.63483 -37.25,21.99102 0,0.35618 21.2625,12.87702 47.25,27.82407 25.9875,14.94706 49.05,28.29655 51.25,29.66554 2.2,1.36898 4.1175,2.50311 4.2611,2.52027 0.1437,0.0172 6.6687,-3.71114 14.5,-8.28513 z m -217.2611,143.33187 v -5.93122 l -4.5,-2.63718 c -2.475,-1.45044 -4.5,-2.94817 -4.5,-3.32829 0,-0.38011 12.2625,-7.70311 27.25,-16.27333 l 27.25,-15.58222 0.2986,5.90499 0.2987,5.905 4.4513,2.16263 c 2.4483,1.18944 4.4514,2.42896 4.4514,2.75449 0,0.32553 -8.2125,5.40647 -18.25,11.29099 -10.0375,5.88451 -22.4125,13.16652 -27.5,16.18224 l -9.25,5.48312 z m 394,-1.17793 c -6.325,-3.76455 -18.5875,-10.98156 -27.25,-16.03779 -8.6625,-5.05622 -15.75,-9.46497 -15.75,-9.79721 0,-0.33224 2.0031,-1.57725 4.4513,-2.76669 l 4.4513,-2.16263 0.2987,-5.905 0.2987,-5.90499 27.25,15.58222 c 14.9875,8.57022 27.25,15.89322 27.25,16.27333 0,0.38012 -2.0037,1.86536 -4.4527,3.30055 -4.3817,2.56782 -4.4574,2.70233 -4.75,8.43614 l -0.2973,5.82671 z m -524,-121.8376 v -53.98151 l 5,3.07653 5,3.07653 5,-3.07653 5,-3.07653 v 53.98151 53.98151 l -5,-3.07653 -5,-3.07653 -5,3.07653 -5,3.07653 z m 646,0 v -53.98151 l 5,3.07653 5,3.07653 5,-3.07653 5,-3.07653 v 53.98151 53.98151 l -5,-3.07653 -5,-3.07653 -5,3.07653 -5,3.07653 z m 8.45,-58.89591 c -0.5225,-0.49275 -21.425,-12.69833 -46.45,-27.12351 -25.025,-14.42518 -49.2125,-28.45223 -53.75,-31.17121 l -8.25,-4.94361 v -63.88694 -63.88693 l 9.25,-5.47662 c 5.0875,-3.01213 29.8375,-17.38618 55,-31.94231 l 45.75,-26.4657 45.75,26.4657 c 25.1625,14.55613 49.9125,28.93018 55,31.94231 l 9.24997,5.47662 v 63.88693 63.88694 l -8.24997,4.94361 c -4.5375,2.71898 -28.725,16.74603 -53.75,31.17121 -25.025,14.42518 -45.9275,26.63076 -46.45,27.12351 -0.5225,0.49275 -1.22,0.89591 -1.55,0.89591 -0.33,0 -1.0275,-0.40316 -1.55,-0.89591 z m 52.05,-55.61884 c 18.7,-10.85954 34.5672,-20.26953 35.2604,-20.91109 0.9853,-0.91185 1.2036,-10.90851 1,-45.79765 l -0.2604,-44.63118 -38,22.17733 -38,22.17734 -0.2603,45.33789 -0.2602,45.3379 3.2602,-1.97295 c 1.7931,-1.08513 18.5603,-10.85804 37.2603,-21.71759 z m -61.5155,-67.90068 c -0.5699,-0.56996 -17.7871,-10.79948 -38.2604,-22.73227 l -37.2241,-21.69597 -0.2605,44.61141 c -0.1608,27.55167 0.1069,44.97871 0.7001,45.5719 0.5283,0.52828 17.7455,10.73608 38.2604,22.68401 l 37.3,21.72351 0.2604,-44.56315 c 0.1739,-29.75664 -0.084,-44.90747 -0.7759,-45.59944 z m 16.2987,-18.22166 c 6.1972,-3.1327 64.003,-36.78572 67.9668,-39.56847 1.5125,-1.06185 2.75,-2.27492 2.75,-2.69573 0,-0.42081 -11.1375,-6.99385 -24.75,-14.60677 -13.6125,-7.61291 -30.9181,-17.34341 -38.4569,-21.62333 l -13.7069,-7.78166 -38.0431,21.67627 c -20.9237,11.92195 -38.0431,22.00909 -38.0431,22.41586 0,0.40678 3.0375,2.27896 6.75,4.16041 3.7125,1.88144 20.925,11.77024 38.25,21.97511 17.325,10.20487 31.6274,18.5838 31.7832,18.61985 0.1558,0.036 2.6308,-1.12114 5.5,-2.57154 z m -698.7832,114.03537 c -25.85,-15.05266 -50.4875,-29.19796 -54.75,-31.434 l -7.75,-4.06553 v -63.90343 -63.90343 l 9.25,-5.48493 c 5.0875,-3.01672 29.8396,-17.38952 55.0047,-31.93957 l 45.7547,-26.45464 45.7453,26.46296 c 25.1599,14.55462 49.9078,28.92743 54.9953,31.93956 l 9.25,5.47662 v 63.36828 63.36828 l -4.75,2.91276 c -6.5403,4.01058 -104.5312,60.72669 -105.2061,60.89217 -0.2992,0.0734 -21.6939,-12.18244 -47.5439,-27.2351 z m 98.5,-27.23654 35.5,-20.71579 0.2601,-45.1745 0.2602,-45.17449 -2.7602,0.96539 c -1.5181,0.53096 -18.7351,10.29664 -38.2601,21.70152 l -35.5,20.73613 -0.2602,45.81252 -0.2601,45.81252 2.7601,-1.62375 c 1.5181,-0.89307 18.7352,-10.94586 38.2602,-22.33955 z m -62.0154,-67.57706 c -0.57,-0.57002 -17.7872,-10.79959 -38.2605,-22.73238 l -37.2241,-21.69598 -0.2606,44.1113 c -0.1662,28.13599 0.098,44.46987 0.7296,45.10138 0.5445,0.54454 17.7617,10.75883 38.2605,22.69842 l 37.2705,21.70836 0.2605,-44.07735 c 0.1739,-29.4246 -0.084,-44.42189 -0.7759,-45.11375 z m 47.2138,-36.74581 c 34.7259,-20.35496 40.7368,-24.15016 39.8016,-25.12993 -0.275,-0.28808 -17.4873,-10.21163 -38.2495,-22.05233 l -37.7494,-21.52855 -37.7506,21.52016 c -20.7628,11.83609 -37.9755,21.75964 -38.2505,22.05233 -0.275,0.2927 0.7613,1.49231 2.303,2.66581 5.2,3.95821 73.1876,43.50158 74.197,43.15488 0.55,-0.18892 16.6143,-9.49598 35.6984,-20.68237 z m 102.0516,122.76552 c -14.9875,-8.83691 -27.25,-16.32332 -27.25,-16.63648 0,-0.31316 2.0031,-1.54256 4.4513,-2.732 l 4.4513,-2.16263 0.2987,-5.905 0.2987,-5.90499 27.25,15.58222 c 14.9875,8.57022 27.25,15.82676 27.25,16.12564 0,0.29888 -2.0029,1.75321 -4.4509,3.23184 -4.3782,2.64451 -4.4558,2.78464 -4.75,8.57846 l -0.2991,5.89004 z m 341.75,10.34437 v -5.998 l -4.5,-2.7181 c -2.475,-1.49495 -4.5,-2.96263 -4.5,-3.26151 0,-0.29888 12.2625,-7.55542 27.25,-16.12564 l 27.25,-15.58222 0.2986,5.90499 0.2987,5.905 4.4513,2.16263 c 2.4483,1.18944 4.4514,2.42826 4.4514,2.75293 0,0.32467 -8.2125,5.41192 -18.25,11.30498 -10.0375,5.89307 -22.4125,13.17578 -27.5,16.18381 l -9.25,5.46912 z m -167,-122.94876 v -31.98151 l 5,3.07653 5,3.07653 5,-3.07653 5,-3.07653 v 31.98151 31.98151 l -5,-3.07653 -5,-3.07653 -5,3.07653 -5,3.07653 z m -193,-42.02292 v -5.89277 l -4.5,-2.63718 c -2.475,-1.45044 -4.5,-2.9463 -4.5,-3.32412 0,-0.37782 20.5875,-12.41432 45.75,-26.74776 l 45.75,-26.06082 0.3015,5.39855 c 0.2909,5.2073 0.4592,5.49374 4.75,8.08551 2.4467,1.47782 4.4485,2.92406 4.4485,3.21386 0,0.2898 -10.9125,6.79481 -24.25,14.45557 -13.3375,7.66077 -34.0375,19.66015 -46,26.6653 l -21.75,12.73664 z m 394,-1.17512 c -6.325,-3.73418 -26.9125,-15.66948 -45.75,-26.5229 -18.8375,-10.85341 -34.25,-19.97201 -34.25,-20.26355 0,-0.29154 2.0017,-1.7392 4.4484,-3.21702 4.2912,-2.59201 4.4591,-2.8778 4.75,-8.08763 l 0.3016,-5.40067 45.75,26.07599 c 25.1625,14.34179 45.75,26.37924 45.75,26.74988 0,0.37064 -2.0037,1.84814 -4.4527,3.28333 -4.3745,2.5636 -4.4579,2.71095 -4.75,8.39071 l -0.2973,5.78128 z m -201.5,-0.76764 c -5.5,-3.15437 -26.425,-14.88391 -46.5,-26.06565 -20.075,-11.18174 -40.2125,-22.51645 -44.75,-25.18824 l -8.25,-4.85781 V 167.49891 103.61 l 5.75,-3.48029 c 3.1625,-1.914157 27.9655,-16.327447 55.1178,-32.029547 l 49.3678,-28.54926 5.0673,2.5678 c 5.2437,2.65717 81.8711,46.77299 96.4471,55.52633 l 8.25,4.954397 v 63.4062 63.40619 l -16.75,9.90696 c -42.631,25.21455 -91.2076,53.23068 -93.25,53.78117 -0.275,0.0741 -5,-2.44608 -10.5,-5.60044 z m -0.3534,-115.28771 c -0.481,-0.48095 -17.6982,-10.69905 -38.2606,-22.70687 l -37.386,-21.83242 -0.2606,44.0858 c -0.1571,26.58141 0.113,44.45934 0.6802,45.02656 0.5175,0.51742 17.7347,10.73504 38.2606,22.70582 l 37.3198,21.76506 0.2605,-44.08474 c 0.1433,-24.24661 -0.133,-44.47825 -0.6139,-44.95921 z m 62.8534,65.40318 34.5,-19.64979 0.2601,-45.22912 0.2602,-45.22912 -2.7602,1.0486 c -1.5181,0.57672 -9.0601,4.78743 -16.7601,9.35713 -7.7,4.5697 -23.675,13.87593 -35.5,20.68053 l -21.5,12.37198 -0.2603,45.28574 -0.2602,45.28574 3.7602,-2.13596 c 2.0682,-1.17477 19.2853,-10.97835 38.2603,-21.78573 z m -26.1994,-97.44691 c 14.1346,-8.41341 31.2119,-18.39819 37.9494,-22.18839 6.7375,-3.7902 12.25,-7.15758 12.25,-7.48306 0,-0.32548 -17.0942,-10.580147 -37.987,-22.788137 l -37.987,-22.19636 -37.763,22.00787 c -20.7697,12.10432 -37.878,22.338657 -38.0185,22.742967 -0.1405,0.40431 14.2595,9.23529 32,19.62439 17.7405,10.38911 34.7305,20.38216 37.7555,22.20679 3.025,1.82462 5.6352,3.32955 5.8006,3.34427 0.1653,0.0147 11.8653,-6.85692 26,-15.27034 z"
       id="path143" />
  </g>
</svg>
