<?xml version="1.0" encoding="UTF-8" standalone="no"?>
<!-- Created with Inkscape (http://www.inkscape.org/) -->

<svg
   version="1.1"
   id="svg2010"
   width="228.48"
   height="327.67999"
   viewBox="0 0 228.48 327.67999"
   sodipodi:docname="full.svg"
   inkscape:version="1.1 (c4e8f9ed74, 2021-05-24)"
   xmlns:inkscape="http://www.inkscape.org/namespaces/inkscape"
   xmlns:sodipodi="http://sodipodi.sourceforge.net/DTD/sodipodi-0.dtd"
   xmlns="http://www.w3.org/2000/svg"
   xmlns:svg="http://www.w3.org/2000/svg">
  <defs
     id="defs2014" />
  <sodipodi:namedview
     id="namedview2012"
     pagecolor="#ffffff"
     bordercolor="#666666"
     borderopacity="1.0"
     inkscape:pageshadow="2"
     inkscape:pageopacity="0.0"
     inkscape:pagecheckerboard="0"
     showgrid="false"
     inkscape:snap-global="false"
     inkscape:zoom="1.6876221"
     inkscape:cx="53.625749"
     inkscape:cy="77.920288"
     inkscape:window-width="1366"
     inkscape:window-height="740"
     inkscape:window-x="0"
     inkscape:window-y="0"
     inkscape:window-maximized="1"
     inkscape:current-layer="g2016" />
  <g
     inkscape:groupmode="layer"
     inkscape:label="Image"
     id="g2016">
    <path
       style="fill:#2ca05a;stroke-width:0.532094"
       d="m 55.875462,317.22465 c 0,-10.31419 0.06521,-10.77469 1.607055,-11.3536 1.38939,-0.52166 1.604872,-1.03424 1.590952,-3.78435 l -0.01603,-3.18095 13.676031,-5.89391 13.676069,-5.89392 V 241.21343 195.30894 L 65.713036,186.2384 45.016543,177.16784 H 30.968421 16.920315 l -14.5072959,-6.35459 -14.5073281,-6.35459 -3.155275,0.57811 c -12.288511,2.2515 -25.013517,-3.74967 -18.948117,-8.93603 2.957757,-2.52911 7.275006,-3.66277 13.889212,-3.64716 5.835589,0.0137 11.4401184,1.69479 13.4577681,4.03649 1.2513925,1.45235 1.043083,3.99242 -0.4298061,5.24141 l -1.2844893,1.08921 13.9314172,6.11653 13.9313941,6.11651 h 10.443302 10.443301 l -10.63557,-4.6734 -10.635571,-4.67339 v -6.02877 -6.02875 L 6.9604022,148.31952 -4.9924869,142.98964 H -21.353185 -37.713872 l -10.465283,-4.57967 -10.465287,-4.57966 -4.535658,0.41718 c -5.616277,0.51657 -9.841998,0.0499 -13.982497,-1.54428 -5.142798,-1.98006 -6.709552,-4.35261 -4.767754,-7.21989 3.750463,-5.53798 20.415561,-6.68468 28.07282,-1.93162 3.09609,1.92181 3.719502,4.89013 1.43058,6.81169 l -1.538629,1.2917 9.332438,4.08169 9.332438,4.08169 h 15.910411 c 9.4308432,0 16.5433892,0.14853 17.4646598,0.36473 1.50294752,0.35272 1.55421747,0.1985 1.55421747,-4.67322 V 130.472 L -11.831718,125.45553 -23.29202,120.43906 h -9.64089 -9.640893 l -13.852226,-6.08176 c -10.774367,-4.73044 -13.852227,-6.28386 -13.852227,-6.99129 0,-0.75155 -0.542907,-0.98085 -3.12587,-1.3202 -6.14811,-0.80774 -11.373372,-4.54094 -10.102619,-7.217844 1.57539,-3.318635 7.468181,-5.520069 14.776082,-5.520069 10.22287,0 17.255414,4.006648 14.605884,8.321403 -1.091817,1.77804 -5.802995,3.88961 -9.870424,4.42399 -1.874075,0.24621 -3.068945,0.62004 -3.068945,0.96016 0,0.30632 5.871699,3.13528 13.048172,6.28657 l 13.048198,5.72963 h 9.66118 9.66118 l 12.2440422,5.37751 12.2440678,5.37751 v 6.19551 c 0,5.74805 0.1160628,6.2416 1.6070539,6.83328 1.6020526,0.63577 1.6070542,0.61543 1.6070542,-6.54843 v -7.18618 l -14.2542111,-6.25784 -14.254245,-6.25783 h -8.117153 -8.117179 l -5.015289,-2.29029 c -2.758432,-1.25967 -5.298081,-2.2903 -5.643696,-2.2903 -1.650722,0 -4.919896,-1.58748 -5.739493,-2.78703 -1.76319,-2.58066 2.728726,-4.96473 9.354235,-4.96473 4.369478,0 8.396579,1.85818 8.396579,3.87434 0,1.65095 -2.243623,3.34251 -4.929087,3.71626 -1.553643,0.21624 -1.425356,0.34363 1.795231,1.7826 l 3.468475,1.54974 h 8.076775 8.076776 l 15.0581999,6.61 15.0581785,6.61 v 8.31039 c 0,7.86288 0.086656,8.3447 1.6070536,8.94812 1.603547,0.63635 1.607054,0.61543 1.607054,-9.54386 v -10.18161 l -16.1830962,-7.10274 c -15.6665138,-6.87604 -16.2556748,-7.09167 -18.4571128,-6.75515 -5.400931,0.82562 -11.160814,-1.20967 -11.160814,-3.94375 0,-2.01616 4.027103,-3.87434 8.396582,-3.87434 4.155765,0 7.227597,0.8138 8.89783,2.35723 1.31944,1.21927 1.339001,1.45505 0.23277,2.804 l -1.207775,1.47279 16.34785028,7.16227 16.34782572,7.16225 v 11.24859 11.24858 l 4.821162,2.20164 4.821163,2.20163 v 6.11047 6.11046 l 28.123451,12.32858 28.123446,12.32858 v -7.58031 -7.5803 l -7.895435,-3.44923 c -7.54019,-3.29401 -7.989328,-3.43044 -9.982595,-3.03219 -4.382159,0.87554 -9.824047,-0.31563 -11.778916,-2.57831 -2.169349,-2.51088 2.495278,-5.19734 9.024383,-5.19734 2.495387,0 3.681276,0.24801 5.956674,1.24579 2.746554,1.20439 2.826846,1.31418 2.415565,3.30316 l -0.425444,2.05735 7.949926,3.47302 7.949946,3.47304 v 8.60739 8.6074 l 4.419399,2.03173 4.419385,2.03173 0.01254,46.97717 0.01254,46.97717 -13.671763,5.90982 -13.671751,5.90983 v 2.49106 c 0,1.95754 0.3442,2.68295 1.607054,3.38696 1.525569,0.85046 1.607054,1.42941 1.607054,11.41895 v 10.52306 H 62.705343 55.875366 Z M 64.91514,165.11821 c 1.970078,-0.9991 1.750258,-2.27798 -0.566128,-3.29372 -2.409479,-1.05658 -4.37957,-1.09361 -7.159895,-0.13459 -3.595138,1.24008 -2.554128,3.5963 1.900454,4.30152 1.820861,0.28827 4.25466,-0.0766 5.825569,-0.87321 z m -81.750645,-2.19944 c 6.275193,-1.14974 7.8568329,-4.83907 2.989571,-6.9734 -3.215413,-1.40998 -8.298046,-1.67702 -12.085823,-0.63499 -2.598278,0.71482 -4.97368,2.52659 -4.97368,3.79357 0,1.14958 2.89124,3.02382 5.674231,3.6783 3.302319,0.77662 4.771693,0.80052 8.395701,0.13652 z m -44.555317,-32.27668 c 1.295663,-0.40455 2.648726,-1.26493 3.08906,-1.96421 2.454873,-3.89873 -7.730106,-6.72148 -14.575275,-4.03949 -2.321716,0.90966 -2.624144,1.23786 -2.624144,2.84772 0,1.60987 0.302428,1.93807 2.624144,2.84773 3.250215,1.27344 7.987885,1.4006 11.486215,0.30825 z m 19.236008,-20.77361 c 3.35327,-1.47044 0.641466,-4.22824 -4.157699,-4.22824 -4.61674,0 -7.051048,2.38604 -4.233759,4.14983 1.635204,1.02375 6.139674,1.06583 8.391458,0.0784 z m 22.05144,-0.0784 c 4.155465,-2.60156 -2.908441,-5.53838 -8.138798,-3.3837 -3.856503,1.58871 -1.306661,4.16682 4.121163,4.16682 1.948202,0 3.136844,-0.2317 4.017635,-0.78312 z m -45.061061,-6.04507 c 3.79114,-0.69462 6.135555,-2.14944 6.135555,-3.807415 0,-2.736669 -3.978386,-4.515577 -10.098725,-4.515577 -2.351646,0 -3.576775,0.276267 -6.066351,1.367954 -2.695884,1.182166 -3.119569,1.582494 -3.119569,2.947487 0,1.836981 2.124501,3.260571 5.958303,3.992541 3.167101,0.60468 3.963346,0.60635 7.190787,0.015 z m 192.878775,213.395 c 0.20338,-5.95917 0.6051,-12.08195 0.89266,-13.60618 l 0.52286,-2.77132 -9.30729,-4.1322 -9.30728,-4.13222 v -59.87145 -59.87146 l -12.856422,-5.62938 -12.85644,-5.62938 v -2.82549 -2.8255 L 63.910733,146.68934 43.01903,137.53325 v -8.86465 -8.86465 l -2.700406,-0.69865 c -3.617809,-0.93603 -6.589957,-2.72598 -7.731458,-4.65624 -0.767244,-1.29738 -2.421193,-2.24205 -9.099385,-5.1972 l -8.161697,-3.61162 H 5.7259185 -3.8742103 l -11.3059307,-4.92232 -11.305898,-4.922335 -0.245578,-7.172241 -0.245577,-7.172241 -7.509636,-3.279336 c -7.464919,-3.259815 -7.525183,-3.27697 -10.119294,-2.880429 -11.295579,1.726694 -23.049395,-2.397993 -21.311842,-7.478832 2.352902,-6.880372 23.582257,-8.150937 30.275085,-1.811953 1.836486,1.73939 1.903456,3.18418 0.246834,5.323942 l -1.276604,1.648867 8.508346,3.742582 8.50837,3.742581 v 6.875934 6.875934 l 9.321264,4.129345 9.3212581,4.129332 h 9.375813 9.3758139 l 7.959558,3.50347 7.95957,3.50348 3.027227,-1.32747 c 1.664977,-0.7301 4.49456,-1.52024 6.287964,-1.75585 l 3.260739,-0.42839 v -2.00943 -2.00944 L 25.213948,92.723376 4.1946245,83.501313 4.2363282,81.698874 c 0.039652,-1.714329 -0.088585,-1.8263 -2.6222111,-2.290503 -4.8658036,-0.891519 -6.9781101,-3.239036 -4.7593461,-5.289355 1.6169726,-1.49424 4.7257922,-2.304641 8.8409118,-2.304641 4.2310861,0 8.3977522,1.862812 8.3935812,3.752557 -0.0024,1.580974 -2.378443,3.48347 -4.7627316,3.81531 -1.3696256,0.190622 -1.6624828,0.522473 -1.6624828,1.883855 v 1.652479 l 20.8916904,9.156086 20.891702,9.156098 v 2.32514 2.32514 l 3.227426,0.42402 c 13.163402,1.72942 15.196056,10.02408 3.096213,12.63475 -1.931222,0.41668 -4.144068,0.84021 -4.917471,0.94117 -1.285826,0.16789 -1.406168,0.87083 -1.406168,8.2137 v 8.03008 l 17.677595,7.74577 17.67759,7.74574 v -7.13214 -7.13214 l -3.816746,-0.004 c -7.230694,-0.006 -15.443988,-2.41952 -18.239522,-5.35862 -1.706919,-1.79458 -1.577803,-5.38271 0.257448,-7.15428 3.239815,-3.12741 10.144672,-5.08047 18.007884,-5.09356 8.029014,-0.0133 13.999684,1.53278 17.835192,4.61857 1.925967,1.5495 2.348697,2.30704 2.333927,4.18251 -0.0176,2.34274 -1.902925,4.60986 -4.66831,5.61627 -1.106431,0.40274 -1.264031,2.02619 -1.264031,13.02052 v 12.56044 l 7.633511,3.33343 7.6335,3.33343 V 142.4198 118.43251 L 91.230841,109.7798 71.946197,101.12682 V 96.786676 92.446768 L 53.866843,84.491402 35.787489,76.536035 V 74.032106 71.528177 L 30.162794,69.146998 24.538099,66.76582 V 63.383926 60.002032 L 12.126197,54.567813 C 0.15109596,49.324832 -0.35921905,49.148285 -2.3750721,49.551048 -10.120319,51.098526 -18.18901,48.248581 -15.642381,44.864897 c 1.784231,-2.370678 7.4650972,-3.487485 12.4565446,-2.448838 3.53813151,0.736235 5.4124674,2.228463 5.1095833,4.067935 -0.2242312,1.362464 0.00722,1.491714 12.8000031,7.108665 l 13.028455,5.72097 v 3.356706 3.356711 l 3.844353,1.660429 c 2.114404,0.913244 4.012736,1.660474 4.218516,1.66053 0.205779,5.4e-5 0.276767,-7.256299 0.157727,-16.125238 L 35.756343,37.097431 33.342925,36.628982 c -5.41853,-1.051749 -6.309719,-4.638792 -1.610019,-6.480325 6.353854,-2.489695 16.959028,0.278358 14.921276,3.894594 -0.612963,1.08776 -4.224879,2.888198 -5.794112,2.888198 -0.858322,0 -1.054954,3.666294 -1.054954,19.670338 v 19.670335 l 2.008814,0.827545 2.008814,0.827545 v -9.320856 -9.320863 l 5.17927,-2.25096 c 4.200702,-1.82567 5.035692,-2.368596 4.419402,-2.873568 -0.417936,-0.342434 -0.759868,-1.283121 -0.759868,-2.090417 0,-1.199472 0.499443,-1.686822 2.731982,-2.665811 2.21509,-0.971329 3.352926,-1.197998 6.013777,-1.197998 6.097914,0 10.536406,2.720062 8.625841,5.286229 -1.535054,2.061811 -8.189418,3.461894 -11.746917,2.471568 -0.922104,-0.256689 -2.385254,0.176821 -6.227331,1.84507 l -5.022048,2.180589 v 9.70415 9.704149 l 12.454671,5.452935 12.454672,5.452946 -0.02013,-7.923676 -0.02013,-7.923678 -3.158415,-0.638309 c -8.353388,-1.688211 -9.421262,-7.129363 -1.893354,-9.647189 3.662908,-1.22512 10.033711,-1.508598 14.238747,-0.633597 5.361656,1.115681 8.331114,3.957021 6.947291,6.647544 -0.720031,1.399964 -4.817646,3.580114 -7.40588,3.940339 -1.369519,0.190635 -1.454963,0.96178 -1.454963,13.133258 v 12.930723 l 9.642318,4.21722 9.642317,4.21721 v -6.91864 -6.91866 L 95.61226,94.049104 c -8.334711,-2.15641 -5.320253,-7.435911 4.245763,-7.435911 3.008937,0 4.028687,0.19331 6.319847,1.198 2.20157,0.965414 2.73199,1.473231 2.73199,2.615614 0,1.53432 -2.745,3.361182 -5.65997,3.766883 -1.49753,0.208428 -1.57178,0.586469 -1.57178,8.003 v 7.78424 l 4.4194,2.03173 4.4194,2.03174 v -1.62109 c 0,-1.61521 0.0422,-1.63971 11.65115,-6.77128 l 11.65114,-5.15019 v -6.156429 -6.156419 l -10.84762,-4.746974 -10.84761,-4.746974 v -7.577601 -7.577612 l -17.657233,-7.754632 -17.65725,-7.754636 -0.07806,-7.650566 -0.07806,-7.650567 -2.837446,-0.768986 c -7.877338,-2.134857 -7.880303,-7.077455 -0.0048,-8.937137 3.738908,-0.882951 10.254961,-0.606963 13.132034,0.556205 2.445435,0.988668 4.28961,2.726986 4.28961,4.043384 0,1.525094 -3.18696,3.609722 -6.55892,4.290231 l -3.041694,0.613911 -0.02014,7.226807 -0.02014,7.226801 14.672311,6.426869 c 8.069778,3.534775 14.939928,6.426864 15.267018,6.426864 0.32709,0 0.59471,-3.322312 0.59471,-7.382921 v -7.382919 l -3.41498,-0.662423 c -11.841721,-2.296997 -13.5245,-8.994209 -3.07335,-12.231431 2.98688,-0.925179 4.09712,-1.057058 8.89892,-1.057058 4.80177,0 5.91202,0.131879 8.8989,1.057058 5.65302,1.751012 8.14633,4.679758 6.40213,7.520196 -1.0693,1.741308 -5.4075,4.006552 -8.88151,4.637551 l -2.40178,0.436273 v 16.260536 16.260521 l 7.63348,3.333433 7.63351,3.333434 V 72.885572 61.814514 l 14.86526,-6.551425 14.86524,-6.551418 v -5.675739 -5.675733 l -2.07382,-0.228243 c -1.14064,-0.125537 -3.46162,-0.630962 -5.15778,-1.123168 -10.71824,-3.110338 -11.68358,-10.104018 -1.91384,-13.865508 4.16325,-1.602915 7.45914,-2.126041 13.33814,-2.117028 6.44425,0.0099 10.5886,0.827451 14.78074,2.91585 5.59965,2.789582 6.7484,6.438924 3.05107,9.692486 -2.16538,1.905449 -6.65495,3.821899 -9.77073,4.170803 -1.79284,0.200763 -1.80793,0.256682 -1.80793,6.700281 0,4.961512 -0.27209,6.722789 -1.15087,7.449299 -0.63297,0.523309 -7.32235,3.645223 -14.86525,6.937583 l -13.71438,5.986109 v 19.180678 19.180679 l -11.65113,5.15019 -11.65114,5.1502 v 16.18477 16.18475 l 6.02645,-2.625 6.02645,-2.62501 v -3.79661 c 0,-3.24413 -0.18681,-3.7966 -1.28466,-3.7966 -0.70658,0 -2.33371,-0.49245 -3.61587,-1.09434 -1.85661,-0.87153 -2.33121,-1.41671 -2.33121,-2.67788 0,-1.3311 0.43552,-1.77454 2.73199,-2.78155 3.06308,-1.34318 6.8693,-1.58982 10.79542,-0.69953 6.18649,1.40286 5.78287,5.61363 -0.67853,7.07882 l -2.40304,0.54491 v 3.96189 3.96188 l -7.63349,3.33343 c -7.62403,3.3293 -7.63351,3.33563 -7.62685,5.10216 l 0.008,1.76872 12.84976,-5.65953 12.85001,-5.65952 v -6.90228 -6.90229 l -2.85174,-0.73781 c -8.33564,-2.15665 -4.98603,-7.43591 4.71795,-7.43591 2.47193,0 3.68011,0.24752 5.84765,1.198 2.32812,1.02089 2.73199,1.44161 2.73199,2.84593 0,1.35158 -0.42235,1.83313 -2.34878,2.67788 -1.29182,0.56647 -2.91896,1.02996 -3.61587,1.02996 -1.11405,0 -1.2671,0.90484 -1.2671,7.49116 v 7.49116 l -14.46347,6.33502 -14.46349,6.335 v 15.50145 15.50145 l 9.24056,-4.04057 9.24056,-4.04056 v -4.78039 -4.78039 l -3.53825,-0.75379 c -11.63365,-2.47848 -11.91001,-9.86654 -0.46485,-12.42693 3.804,-0.85099 10.63262,-0.9267 14.00625,-0.15526 l 2.36966,0.54185 21.1335,-9.26226 c 11.62345,-5.09424 21.13351,-9.44744 21.13351,-9.67376 0,-0.22633 -1.66814,-0.76561 -3.707,-1.19841 -5.32951,-1.13135 -8.3459,-3.31928 -8.3459,-6.05368 0,-3.22163 3.23986,-5.44877 9.60944,-6.60571 l 2.44346,-0.44382 v -5.33453 -5.33451 l -13.65995,-5.98222 -13.65995,-5.982222 V 88.66686 c 0,-8.326307 -0.0675,-8.710294 -1.57177,-8.919636 -3.0031,-0.417956 -5.65998,-2.230051 -5.65998,-3.860311 0,-1.891617 2.21814,-3.20869 6.30906,-3.74616 5.89187,-0.774076 11.58767,1.119546 11.58767,3.852405 0,1.643385 -1.9383,3.009556 -5.07947,3.580092 -2.3121,0.41996 -2.3714,0.49347 -2.3714,2.938766 v 2.508036 l 14.06171,-6.158621 14.06173,-6.158621 v -4.420221 -4.420222 l -4.43174,-1.9192 c -3.93614,-1.704595 -4.6088,-1.870697 -6.01552,-1.485466 -0.87113,0.238555 -3.07125,0.433736 -4.88921,0.433736 -4.62746,0 -8.76935,-1.776963 -8.76935,-3.762241 0,-3.018399 6.3264,-4.958877 12.48704,-3.830118 3.88209,0.711274 6.19751,2.457528 5.59677,4.22099 -0.45115,1.324451 -0.25768,1.480181 4.3985,3.540278 l 4.87045,2.15488 0.12982,5.024992 0.12983,5.02498 -15.81497,6.941495 c -15.25338,6.695 -15.81494,6.991307 -15.81494,8.344661 v 1.40319 l 17.67759,-7.745761 17.67759,-7.74575 v -9.595569 -9.595572 l -2.39697,-0.543544 c -6.55711,-1.486894 -6.20508,-5.864834 0.57142,-7.106423 10.79937,-1.978663 18.42265,4.963875 7.87297,7.169917 l -2.80898,0.587387 0.0515,9.860715 0.0515,9.860715 -19.34828,8.489645 -19.34819,8.489643 v 2.292209 2.29221 l 11.4603,5.016474 c 6.30318,2.75905 11.72697,5.01646 12.05291,5.01646 0.32593,0 0.5926,-0.99472 0.5926,-2.21047 v -2.21046 l -6.42822,-2.802299 -6.42821,-2.802284 v -3.182836 -3.182825 l 15.72439,-6.867499 15.72442,-6.867489 -0.23026,-8.808821 c -0.2562,-9.791853 -0.12729,-10.090829 4.73274,-10.981292 4.97757,-0.91199 9.42095,-0.0944 12.15967,2.237398 1.22695,1.044666 1.13855,1.725896 -0.40971,3.156613 -1.73074,1.599363 -5.1907,2.367536 -9.66712,2.146281 l -3.48405,-0.172136 v 6.566723 6.566723 l -15.66878,6.864097 -15.66876,6.864108 v 2.481885 2.481896 l 4.24377,1.837818 c 2.3341,1.010801 4.41323,1.837916 4.62027,1.838037 0.20718,1.21e-4 0.24885,-0.808738 0.0927,-1.79745 l -0.28391,-1.797672 20.17121,-8.870185 20.17113,-8.870185 v -6.869261 -6.869261 l 7.27163,-3.163832 c 6.57549,-2.86095 7.23126,-3.265024 6.85012,-4.220887 -1.07447,-2.694734 2.66986,-5.717876 8.73567,-7.053071 10.90649,-2.400731 22.94363,0.865566 22.94363,6.225802 0,5.575727 -15.94441,8.95815 -25.53921,5.417863 l -2.31001,-0.852342 -5.76182,2.543569 -5.76178,2.543569 v 6.865297 6.865287 l -19.68641,8.627248 -19.68641,8.627249 0.01,10.220924 c 0.006,5.62151 0.22147,10.78448 0.48138,11.47329 0.38856,1.02982 1.09195,1.39645 3.95833,2.06326 12.00371,2.79239 10.85032,10.37544 -1.93123,12.69705 -2.06383,0.37485 -2.51732,0.65626 -2.51732,1.56203 0,0.97649 -2.55625,2.22517 -22.01048,10.75178 l -22.01046,9.64698 1.11875,1.17415 c 3.19968,3.35804 -1.48428,7.80245 -9.51714,9.03039 l -2.22051,0.33944 v 5.66641 5.66639 l -12.45465,5.50015 -12.45468,5.50015 v 51.248 51.24801 l 9.03968,3.97379 9.03967,3.97379 0.65976,3.95966 c 0.36287,2.17781 0.82507,8.75607 1.02712,14.61833 l 0.36739,10.65867 h -6.87512 -6.8751 z m 19.51103,-154.75344 c 3.10309,-0.8297 4.43051,-1.83783 4.43051,-3.36488 0,-1.52706 -1.32742,-2.53519 -4.43051,-3.36489 -3.08307,-0.82434 -5.46475,-0.86658 -8.61292,-0.15269 -6.33372,1.43625 -6.15999,5.82583 0.27918,7.0539 3.5037,0.66822 5.33419,0.63059 8.33374,-0.17144 z M 87.654441,131.62626 c 6.850077,-2.77343 2.672316,-7.31132 -6.731078,-7.31132 -8.440253,0 -12.611548,4.80279 -6.34259,7.30274 2.26442,0.90301 3.472846,1.09145 7.22023,1.1259 2.348263,0.0216 3.657826,-0.22836 5.853438,-1.11732 z M 202.78713,130.0775 c 2.32962,-0.66107 4.42214,-2.77511 3.80834,-3.84751 -0.79023,-1.38062 -4.38141,-2.93223 -7.35227,-3.17661 -7.54484,-0.62069 -13.62945,3.15592 -9.42812,5.85183 3.18839,2.04592 8.27374,2.50549 12.97205,1.17229 z m -63.79218,-0.20333 c 4.15546,-2.60155 -2.90847,-5.53838 -8.13883,-3.38369 -3.85649,1.58871 -1.30663,4.16681 4.12121,4.16681 1.94818,0 3.13684,-0.23169 4.01762,-0.78312 z m 13.50462,-7.03829 c 3.04138,-1.54239 0.2255,-4.15858 -4.47597,-4.15858 -2.58777,0 -5.36722,1.37203 -5.36722,2.64944 0,2.34055 6.29935,3.30635 9.84319,1.50914 z m -98.511557,-7.08982 c 2.471669,-0.99327 2.910128,-1.39561 2.910128,-2.67044 0,-3.86072 -9.746057,-5.37935 -15.778576,-2.4586 -1.992749,0.96481 -2.247833,1.32186 -1.902959,2.66358 0.89596,3.48568 8.905886,4.8226 14.771407,2.46546 z M 104.02875,92.027149 c 0.91596,-0.510624 1.66539,-1.202756 1.66539,-1.538074 0,-1.057852 -3.1435,-2.466471 -5.50421,-2.466471 -3.639478,0 -5.745175,0.904006 -5.745175,2.466471 0,1.015723 0.461296,1.51113 1.785832,1.917966 2.739859,0.841518 5.881753,0.688453 7.798163,-0.379892 z M 10.091399,77.085771 c 2.095373,-1.716883 -0.8752437,-3.861985 -5.3482421,-3.861985 -6.0512347,0 -6.9686608,4.189585 -1.0969318,5.009235 1.8049152,0.251955 5.551382,-0.414917 6.4451739,-1.14725 z m 162.143961,0.704871 c 3.64743,-1.490089 1.3785,-4.214503 -3.50992,-4.214503 -5.35924,0 -7.85498,2.427172 -4.23378,4.117441 2.16063,1.008522 5.41287,1.049285 7.7437,0.09712 z M -46.65341,72.380121 c 3.591866,-0.658096 5.302123,-1.823227 5.302123,-3.612111 0,-3.80496 -10.674379,-5.343277 -16.097758,-2.319891 -3.165745,1.764814 -1.250614,5.002661 3.494212,5.907591 3.257675,0.621308 4.029562,0.623885 7.301423,0.02445 z M 79.780396,70.533022 c 4.223135,-2.037029 -0.05747,-5.12669 -6.273464,-4.528021 -6.020717,0.579863 -6.504433,4.411459 -0.684504,5.421995 2.5734,0.446827 4.760905,0.165771 6.957968,-0.893974 z M 224.4646,62.287129 c 2.16852,-0.885903 2.35722,-2.813511 0.3524,-3.599572 -3.68098,-1.443258 -9.8432,-0.384396 -9.8432,1.691372 0,1.126252 3.33502,2.626625 5.83841,2.626625 1.0416,0 2.68518,-0.323294 3.65239,-0.718425 z m 43.40942,-2.598866 c 3.79625,-0.860846 5.571,-3.104563 3.86873,-4.891083 -1.55093,-1.627707 -4.16739,-2.362208 -8.41471,-2.362208 -2.95369,0 -3.97165,0.199178 -6.35148,1.242753 -2.62758,1.152211 -2.80311,1.36316 -2.40923,2.89548 0.76698,2.984005 7.22139,4.49497 13.30669,3.115058 z M 186.67157,58.93352 c 2.18934,-0.672444 2.44581,-2.77592 0.45601,-3.74007 -2.03479,-0.98595 -6.23535,-0.8414 -8.25416,0.284039 -0.91598,0.510619 -1.66538,1.20275 -1.66538,1.538069 0,0.33532 0.7494,1.027451 1.66538,1.53807 1.91642,1.068352 5.05831,1.221414 7.79815,0.379892 z M 65.718673,53.924273 c 2.190309,-0.843404 1.820414,-2.704675 -0.711008,-3.577844 -1.164449,-0.401654 -2.742831,-0.73028 -3.507507,-0.73028 -2.309445,0 -5.624696,1.378651 -5.624696,2.339031 0,2.520757 5.535014,3.628011 9.843211,1.969093 z M 209.18042,53.618609 c 2.75959,-0.324156 4.55107,-2.060946 3.39179,-3.28823 -1.92033,-2.032962 -8.29624,-2.122471 -10.35061,-0.145307 -1.33693,1.286684 -1.12899,1.832578 1.06454,2.794443 2.06703,0.906411 2.87384,0.993893 5.89428,0.639094 z M -2.8402987,47.630691 c 3.25251799,-1.813194 1.0106126,-4.004539 -4.096933,-4.004539 -3.4134103,0 -5.4870873,0.886188 -5.4870873,2.344903 0,2.423706 6.266781,3.508903 9.5840203,1.659636 z M 120.63973,40.666389 c 2.98576,-1.30928 3.58706,-2.878863 1.77202,-4.625667 -2.58629,-2.489116 -12.68501,-2.563843 -15.57259,-0.115231 -2.03827,1.728411 -1.48007,3.395982 1.58697,4.740898 2.23968,0.982113 3.34016,1.197999 6.1068,1.197999 2.76664,0 3.86712,-0.215886 6.1068,-1.197999 z M 41.63957,34.870294 c 1.849159,-0.947213 2.073089,-1.610359 0.942098,-2.78987 -0.680673,-0.709889 -1.837624,-1.199061 -3.187196,-1.34759 -6.734378,-0.741174 -10.605741,3.420742 -4.268773,4.589148 2.852579,0.525953 4.879712,0.385385 6.513871,-0.451688 z m 131.09488,-2.500525 c 3.12624,-0.903689 4.41058,-1.995751 4.4451,-3.779665 0.0354,-1.826473 -2.82992,-3.465169 -6.92606,-3.961123 -8.90909,-1.078692 -16.06444,3.607587 -10.18594,6.671097 3.57331,1.862182 8.48922,2.277317 12.6669,1.069691 z M 84.700135,30.202908 c 4.055123,-1.656647 4.047447,-3.917883 -0.01758,-5.418107 -2.736363,-1.009654 -6.075143,-1.143404 -9.448342,-0.378493 -4.624928,1.048755 -5.279628,4.3874 -1.140332,5.815169 2.844338,0.981092 8.183024,0.971744 10.607104,-0.01856 z M 163.54806,317.45179 c 0,-9.98954 0.0816,-10.56849 1.60707,-11.41895 1.25196,-0.69794 1.60705,-1.42942 1.60705,-3.31056 v -2.41468 l -14.06173,-6.15861 -14.06172,-6.15862 V 240.945 193.89963 l 21.29347,-9.33237 21.29346,-9.33236 v -3.88041 -3.8804 l 26.11463,-11.4474 26.11462,-11.4474 v -15.05153 -15.05153 l -3.41498,-0.4004 c -4.75376,-0.55734 -9.83128,-2.91967 -10.87126,-5.05789 -1.79613,-3.69288 3.28376,-7.44305 11.27773,-8.32573 l 3.81205,-0.42092 v -6.216097 -6.216109 l 14.46348,-6.335007 c 13.75638,-6.025288 14.46347,-6.401513 14.46347,-7.695231 0,-1.077131 0.5686,-1.609569 2.732,-2.558236 3.51221,-1.540123 7.94517,-1.660121 11.59385,-0.313836 5.30035,1.955723 4.87481,4.98391 -0.91803,6.532787 -3.28827,0.879197 -5.89946,0.865885 -9.31615,-0.04745 l -2.7383,-0.732035 -13.53313,5.926662 -13.53308,5.926674 v 6.043776 6.043772 l 2.20969,0.2418 c 8.47602,0.92754 13.28474,6.05164 9.07491,9.67018 -1.53339,1.31801 -5.84489,3.20146 -7.32862,3.20146 -0.43655,0 -0.74188,4.23095 -0.74188,10.27966 v 10.27965 l 2.00881,-0.82755 2.00883,-0.82756 v -8.1428 -8.14283 l 4.4194,-1.91386 4.41938,-1.91387 v -4.9367 -4.93667 l -5.68982,-2.51179 c -4.92165,-2.172686 -5.73354,-2.710849 -6.01367,-3.986201 -0.29005,-1.320475 0.01,-1.63331 2.87521,-2.996299 2.97531,-1.415434 3.13814,-1.598569 2.32759,-2.618169 -1.96401,-2.470543 2.53993,-4.993224 8.91479,-4.993224 4.59778,0 8.83527,1.765915 8.83527,3.681966 0,2.979671 -5.71183,4.929338 -11.84209,4.042158 -2.53501,-0.366866 -2.94746,-0.319562 -5.10029,0.584873 -3.92122,1.647381 -3.29931,2.658105 3.54424,5.759823 l 5.88649,2.667933 0.18431,5.28529 0.18431,5.28529 -4.86561,2.10309 -4.86562,2.10308 v 7.05113 7.05113 l 7.63352,-3.33344 7.63351,-3.33342 V 111.63268 98.760292 l 11.5842,-5.070709 c 10.56556,-4.624807 11.51948,-5.145419 10.84762,-5.920287 -1.64412,-1.896264 -0.19384,-4.951515 3.11078,-6.554037 3.77584,-1.830936 12.88082,-2.605364 17.68686,-1.50436 2.50678,0.57428 5.96439,2.133121 7.35194,3.314583 1.47739,1.257976 1.19424,4.493709 -0.50447,5.765043 -4.30691,3.223334 -13.13463,4.365023 -20.4384,2.643273 l -3.70781,-0.874055 -10.15303,4.462086 -10.15302,4.462087 v 12.239344 12.23937 h 4.83875 4.83871 l 7.98985,-3.41252 7.98987,-3.41251 -0.42925,-1.96086 c -0.77205,-3.52696 4.21503,-6.01413 12.05402,-6.01162 12.84078,0.004 17.21041,6.58039 6.65009,10.00834 -2.81513,0.91383 -9.83058,0.98934 -12.70177,0.13673 -1.87215,-0.55595 -2.03311,-0.50804 -10.41937,3.10094 l -8.51782,3.66562 h -7.10716 -7.10712 l -13.09144,5.72573 c -12.80312,5.59963 -13.09163,5.75871 -13.1011,7.22323 l -0.01,1.4975 h 5.73044 5.73038 l 7.90157,-3.52353 7.90155,-3.52353 h 9.67029 c 9.2865,0 9.67033,-0.0294 9.67033,-0.73954 0,-1.22383 2.29025,-2.95323 4.75724,-3.59226 7.95984,-2.06187 16.80193,1.75667 12.50498,5.40039 -2.51363,2.13152 -8.65462,2.68439 -13.56992,1.22171 -2.71974,-0.80934 -3.68786,-0.88088 -11.92012,-0.88088 h -8.96001 l -8.56182,3.69971 -8.56186,3.6997 h -6.14654 c -6.02061,0 -6.14651,0.0181 -6.14651,0.88088 0,0.86865 0.0924,0.88089 6.65064,0.88089 h 6.65064 l 5.58215,-2.46648 c 5.1095,-2.25787 5.86133,-2.46647 8.88915,-2.46647 2.7491,0 3.46224,-0.14886 4.22369,-0.88169 1.08973,-1.04877 5.42711,-2.28633 8.01964,-2.28817 2.50013,-0.002 6.21669,0.87958 7.74573,1.83684 0.68972,0.43182 1.25404,1.47921 1.25404,2.32754 0,3.18012 -8.43093,5.11297 -13.9694,3.2026 -1.17328,-0.4047 -2.67767,-1.19749 -3.34311,-1.76177 -2.07548,-1.75996 -4.74658,-1.41681 -11.21269,1.44053 l -5.58159,2.46647 h -7.26534 -7.26535 l -10.01997,4.40441 -10.01998,4.40441 h 3.21792 c 2.9956,0 3.74313,-0.23126 10.8197,-3.34736 l 7.60175,-3.34734 h 7.41091 7.41089 l 1.61147,-1.5975 c 2.78018,-2.75606 10.17102,-3.41051 14.73798,-1.30503 5.89478,2.71765 1.75761,6.7734 -6.91317,6.77708 -2.46633,9.3e-4 -3.66379,-0.24873 -5.90592,-1.23191 -2.78152,-1.21974 -2.88863,-1.23323 -9.77792,-1.23323 h -6.96558 l -8.00513,3.52353 -8.00511,3.52353 h -5.64792 -5.64791 l -14.6562,6.4339 -14.65623,6.43393 v 3.86638 3.86639 l -8.2218,3.61763 -8.22181,3.61763 h 11.2509 11.2509 l 7.41675,-3.26588 c 7.20091,-3.17084 7.41675,-3.31309 7.41675,-4.88811 v -1.62223 l -4.08917,-0.17229 c -5.09264,-0.21458 -7.89631,-1.31111 -8.51378,-3.32979 -1.18506,-3.87441 8.74343,-6.09263 15.17534,-3.39048 2.87244,1.20677 3.54376,2.78622 1.91208,4.49868 -0.75589,0.79331 -1.27036,2.35276 -1.27036,3.85076 v 2.51754 l -8.65106,3.78178 -8.651,3.78178 h -13.74933 c -11.24138,0 -13.9318,0.0965 -14.74964,0.52853 -0.88331,0.46671 0.8213,0.52853 14.57434,0.52853 h 15.57467 l 14.27304,-6.26609 14.27306,-6.26609 -0.8926,-1.12281 c -2.00293,-2.51952 2.3189,-5.0197 8.6772,-5.0197 3.00892,0 4.02867,0.1933 6.31982,1.198 2.16754,0.95047 2.732,1.48027 2.732,2.56424 0,1.33135 -1.46614,2.6435 -3.98078,3.56269 -0.8272,0.30237 -2.88883,0.4053 -6.17154,0.3081 l -4.92937,-0.14595 -14.34691,6.29851 -14.34687,6.29851 H 179.64101 161.567 l -8.24988,3.60533 -8.24986,3.60532 v 45.61434 45.61434 l 14.46348,6.37609 14.46349,6.37609 v 2.99268 c 0,2.55665 0.23427,3.0806 1.60706,3.59607 1.54186,0.57892 1.60704,1.03942 1.60704,11.35361 v 10.7502 h -6.82998 -6.82998 z m 72.8683,-143.86888 c 5.09673,-2.09964 -1.8248,-5.39328 -7.60383,-3.61831 -1.32453,0.40682 -1.78583,0.90224 -1.78583,1.91797 0,2.29745 5.51563,3.29626 9.38966,1.70034 z m -27.87078,-1.70034 c 3.72748,-1.63453 1.43302,-4.22823 -3.74041,-4.22823 -5.40389,0 -7.7256,2.40349 -3.92961,4.06806 2.3889,1.04754 5.4983,1.11248 7.67002,0.16017 z m 62.52359,-22.56431 c 3.36749,-1.37574 1.699,-4.02341 -2.66084,-4.22234 -2.75125,-0.12552 -3.56489,-0.0145 -5.22293,0.71253 -2.17169,0.95232 -2.02365,2.31582 0.36526,3.36337 2.40109,1.05289 5.16776,1.10679 7.51851,0.14644 z m 13.30133,-7.41125 c 4.12128,-1.42155 1.76006,-4.34553 -3.45665,-4.28049 -5.30651,0.0661 -7.57787,2.49181 -3.92842,4.19526 2.16353,1.00986 4.62215,1.03824 7.38507,0.0852 z m 16.21542,-7.534 c 2.23866,-0.98166 2.52324,-2.15694 0.78577,-3.24471 -3.67475,-2.3006 -12.51601,-0.24925 -10.07293,2.33713 1.71208,1.8125 6.21912,2.25294 9.28716,0.90758 z m 11.14146,-17.83687 c 2.81766,-1.4684 2.72579,-2.91526 -0.26856,-4.2283 -3.98229,-1.74626 -9.66566,-1.29497 -11.79176,0.93634 -0.9926,1.04176 -0.99358,1.36695 -0.008,2.40213 1.38407,1.45258 3.16592,1.94907 7.04551,1.96321 2.31506,0.009 3.38499,-0.22025 5.02205,-1.07338 z m -71.60902,-5.96848 c 6.90699,-2.38242 2.85964,-7.03637 -6.12259,-7.04021 -5.22699,-0.002 -9.53074,2.51109 -8.2203,4.80058 0.2915,0.50932 1.56842,1.38139 2.83762,1.93794 2.90341,1.27316 8.28011,1.41416 11.50527,0.30169 z m 19.85293,-19.37388 c 2.06558,-0.905767 2.04398,-2.127869 -0.0582,-3.299828 -3.26516,-1.820244 -9.58399,-0.76639 -9.58399,1.598416 0,0.614568 0.59842,1.407363 1.32982,1.761764 1.79921,0.871786 6.26063,0.839403 8.31251,-0.06034 z m 45.78222,-2.050792 c 6.81686,-2.21815 4.13573,-7.099723 -4.22626,-7.694758 -10.98588,-0.781761 -15.8964,5.918514 -5.96084,8.133481 3.07482,0.68548 7.29006,0.503941 10.1871,-0.438723 z M 276.24272,75.770152 c 2.19031,-0.843412 1.82042,-2.704682 -0.71102,-3.577846 -1.16443,-0.40166 -2.74282,-0.730284 -3.50749,-0.730284 -2.30945,0 -5.62469,1.378658 -5.62469,2.339029 0,2.520765 5.53502,3.628011 9.8432,1.969101 z"
       id="path2234" />
  </g>
</svg>
